<?xml version="1.0" encoding="utf-8"?>
<!-- Generator: Adobe Illustrator 24.0.1, SVG Export Plug-In . SVG Version: 6.00 Build 0)  -->
<svg version="1.1" id="Capa_1" xmlns="http://www.w3.org/2000/svg" xmlns:xlink="http://www.w3.org/1999/xlink" x="0px" y="0px"
	 viewBox="0 0 60 60" style="enable-background:new 0 0 60 60;" xml:space="preserve">
<style type="text/css">
	.st0{fill:none;}
	.st1{fill:#FFFFFF;}
</style>
<g>
	<circle cx="30" cy="30" r="28.5"/>
	<g>
		<path d="M30,2c15.44,0,28,12.56,28,28c0,15.44-12.56,28-28,28C14.56,58,2,45.44,2,30C2,14.56,14.56,2,30,2 M30,1L30,1
			C13.98,1,1,13.98,1,30v0c0,16.02,12.98,29,29,29h0c16.02,0,29-12.98,29-29v0C59,13.98,46.02,1,30,1L30,1z"/>
	</g>
</g>
<g>
	<rect x="12.22" y="8.42" class="st0" width="20.31" height="36.31"/>
	<path class="st1" d="M15.43,15.81c0-2.77,0.5-4.69,1.51-5.78s2.76-1.63,5.26-1.63h5.95v3.14h-2.84c-1.22,0-2.04,0.23-2.47,0.69
		s-0.64,1.33-0.64,2.61v6.33h5.32v3.12H22.2v17.67h-6.77V15.81z"/>
</g>
<g>
	<rect x="28.61" y="14.73" class="st0" width="24.1" height="36"/>
	<path class="st1" d="M29.15,48.29l5.41-16.95c0.53-1.69,1.14-2.86,1.82-3.52s1.6-0.98,2.75-0.98c1.08,0,1.92,0.29,2.53,0.87
		s1.17,1.68,1.69,3.31l5.6,17.27h-7.1l-1.15-3.8h-6.91l-1.1,3.8H29.15z M34.66,41.61h5.18l-2.48-9.02L34.66,41.61z"/>
</g>
<g>
</g>
<g>
</g>
<g>
</g>
<g>
</g>
<g>
</g>
<g>
</g>
<g>
</g>
<g>
</g>
<g>
</g>
<g>
</g>
<g>
</g>
<g>
</g>
<g>
</g>
<g>
</g>
<g>
</g>
</svg>
